<?xml version="1.0" encoding="utf-8"?>
<!-- Generator: Adobe Illustrator 19.0.0, SVG Export Plug-In . SVG Version: 6.00 Build 0)  -->
<svg version="1.1" id="Layer_1" xmlns="http://www.w3.org/2000/svg" xmlns:xlink="http://www.w3.org/1999/xlink" x="0px" y="0px"
	 viewBox="0 0 255.3 255.7" style="enable-background:new 0 0 255.3 255.7;" xml:space="preserve">
<style type="text/css">
	.st0{fill:#F8BC5F;}
	.st1{fill:#E86F35;}
	.st2{fill:#E63842;}
	.st3{fill:#BFD442;}
	.st4{fill:#6CB850;}
	.st5{fill:#ACDBE8;}
	.st6{fill:#53BAE1;}
	.st7{fill:#001A20;}
	.st8{fill:#4C5C62;}
	.st9{fill:#FEFEFE;}
</style>
<path class="st0" d="M-0.7,108.5c0.1-0.1,0.3-0.1,0.5-0.1c1.3,1.1,0.9,2.6,0.8,4c-0.2,9.2,0.1,18.4,2.3,27.4
	c4.8,20.6,14.2,38.6,28.9,53.9c8.7,9,18.4,16.7,29.5,22.5c12,6.3,24.8,10.3,38.3,12.1c23.2,3,45.4-0.7,66.2-11.3
	c21.9-11.1,38.7-27.7,50.1-49.6c6.9-13.2,10.7-27.3,12.4-42c0.3-2.5,0.1-5.1,0-7.7c0.1-6.7,0.3-13.3-0.2-19.9
	c1-6.9-0.5-13.6-1.9-20.2c-4.4-19.9-14.4-36.7-29.3-50.6c-9.6-8.9-20.6-15.7-33-20.2c-1-0.4-2.3-0.3-2.5-1.9
	c6.9,1.2,13.2,3.9,19.4,6.8c36.7,17.7,61,46.2,70.5,85.8c10,41.4,1,79.2-26.1,112.2c-19.1,23.2-43.7,37.8-73.2,43.4
	c-39.7,7.4-75.5-1.7-106.7-27.5c-24.1-20-38.5-45.8-44-76.6c-0.8-4.4-1.4-9-1.4-13.5c0-0.9,0.2-1.9-0.5-2.7
	C-0.7,124.8-0.7,116.6-0.7,108.5z"/>
<path class="st1" d="M229.1,118c-0.3,25.1-8.6,47.4-23.6,67.2c-10.4,13.7-23.5,24.6-38.9,32.4c-12.1,6.1-25,10-38.5,11.6
	c-23.5,2.8-45.7-1.3-66.6-12.1c-20.1-10.4-35.7-25.7-47.1-45.4c-7.9-13.7-12.5-28.5-14.2-44.1c-0.7-6.3-0.2-12.7-0.3-19
	c1.5-27.7,11.9-51.8,30.8-72C47.9,17.9,69.2,6.5,94.1,1.9c8.6-1.6,17.2-2.1,25.9-1.5c-0.7,1.1-1.8,1.2-3,1.3
	C97.3,4.3,79.8,12,64.9,25.1C46.4,41.3,35.3,61.7,31.8,86.2c-2.8,19.8,0.4,38.7,8.9,56.7c4.2,8.9,9.9,16.8,16.5,24
	c11.4,12.4,25.2,21.1,41,26.6c3.3,1.1,6.6,2.5,10.2,2.2c8.3,1.8,16.7,2.8,25.2,3c26.2,0.4,49-7.9,67.9-26.4
	c12.1-11.9,20.2-26.1,24.4-42.6c0.8-3,1-6.2,1.7-9.2C227.9,119.5,227.6,118.2,229.1,118z"/>
<path class="st2" d="M107.9,196.2c-3.1,0.9-5.7-0.8-8.4-1.6c-14-4.4-26.3-11.6-37.2-21.6c-9.3-8.5-16.8-18.4-22.2-29.7
	c-5.6-11.5-8.6-23.6-9.6-36.4c-1.2-15.6,1.3-30.5,7-44.8C42,50.8,48.6,40.7,57,31.7c10.8-11.5,23.6-20,38.4-25.5
	c7.1-2.6,14.4-4.5,21.9-5.2c0.9-0.1,1.8-0.4,2.8-0.6c12.2-1,24.2,0.1,36,3c1.8,0.4,3.6,1,5.4,1.6c7.3,3,14.7,6,21.4,10.4
	c24,15.6,39.1,37.3,44.7,65.5c0.9,4.4,1.5,8.7,1.6,13.2c0,1,0.3,2.1-0.5,3c-0.9-0.6-0.8-1.7-0.9-2.6c-3.2-21.8-13.2-40-29.4-54.6
	c-15.2-13.7-33.2-21.2-53.6-22.8c-23.8-1.8-44.9,5-63.6,19.5c-5.3,4.1-10.2,8.7-14.1,14.3c-4.2,5.4-8.5,10.6-11.7,16.7
	c-4.4,8.4-7.1,17.3-8,26.7c-0.4,4.3-0.5,8.7-0.5,13c-0.6,15,1.5,29.4,8,43.1c4.8,10,11.2,18.8,19.5,26.3c9.3,8.5,20,14.6,32,18.3
	C106.9,195.1,107.6,195.4,107.9,196.2z"/>
<path class="st3" d="M66.1,50.9c1.9-3.5,4.8-6.3,7.7-9c15-14.3,32.7-23.2,53.3-25.3c32.3-3.2,59.5,7.5,80.8,32.3
	c11.2,13,17.8,28.2,20.5,45.1c0.2,1,0.1,2.1,0.2,3.1c1.1,7,0.3,14,0.5,20.9c-1.5,4.9-1.8,10.1-3.3,15.1c-4.1,14-11.1,26.4-21.1,37.1
	c-12.6,13.5-27.9,22.4-45.8,26.7c-8.1,1.9-16.3,2.9-24.7,2.5c0.2-1.4,1.4-1.1,2.2-1.2c18.1-0.8,34-7.3,47.8-18.7
	c16.8-13.8,26.8-31.5,30-53.1c3.2-22.1-1.7-42.4-14.5-60.6c-13.5-19.1-32.1-30.4-55-34.6c-2.2-0.4-4.3-0.6-6.5-0.4
	c-4.8-0.6-9.5-0.5-14.3-0.5c-18.4-1.1-35.1,3.6-49.7,14.9c-1.9,1.4-3.5,3.2-5.4,4.6C67.8,50.3,67.2,51.1,66.1,50.9z"/>
<path class="st4" d="M138.7,30c8.7,0.2,16.9,2.7,24.9,5.9c11.1,4.5,20.8,11.2,29,19.9c12,12.9,19.8,28,22.3,45.6
	c3.5,24.4-2.3,46.4-17.6,65.9c-13.3,16.9-30.9,26.8-51.9,30.8c-3.7,0.7-7.5,0.8-11.2,1.2c-8.9,0.1-17.6-0.9-26.2-3.2
	c-20.6-6.1-36.9-18-48.6-36.1c-10.4-16.1-14.3-33.8-13.2-52.7c1.3,0.3,1,1.4,1.1,2.3c5.1,30.2,21.9,50.8,51.4,59.3
	c22.9,6.6,44.4,2,63.2-12.9c14.1-11.2,22.3-26,25.5-43.6c0.4-2.4,0.7-4.9,0.5-7.3c1.1-8.5,0.7-17-0.6-25.5
	c-1.7-11.4-6.6-21.3-14.3-29.8c-8.9-9.7-19.6-16-32.5-18.5C139.8,31.2,138.7,31.3,138.7,30z"/>
<path class="st5" d="M188.7,105.1c-0.3,12.6-4.1,24.2-11.1,34.6c-16.3,24.1-39.3,34.8-68.1,32.3c-31-2.7-57.2-27.9-62.4-58.8
	c-0.3-1.9-0.6-3.9-1-5.8c-1.3-21.7,5.4-40.5,20-56.5c6.2-5.5,12.7-10.7,20.3-14.3c11.7-5.5,23.9-7.9,36.8-6.9
	c-0.4,1.4-1.7,1-2.6,1.1c-12.4,2-23.4,7.1-32.4,15.9C78,56.6,72,68.7,70.5,82.9C68.8,99,72.9,113.4,82.8,126
	c7.7,9.8,17.6,16.5,29.6,20.1c0.8,0.2,1.7,0.3,2.5,0.3c3.1,0.4,6.1,1.6,9.3,1.9c4.6,0.8,9.3,0.6,13.9,0.3c6.8-0.5,13.5-1.7,19.8-4.7
	c14.5-6.9,24-18,28.6-33.4C187,108.6,186.5,106.3,188.7,105.1z"/>
<path class="st6" d="M188.7,105.1c-1.7,7.6-4.2,14.8-8.8,21.3c-9.5,13.4-22.3,21.1-38.7,22.7c-5.5,0.5-11.1,0.8-16.6,0.1
	c1.3-1.6,3.2-1,4.8-0.9c10.4,0.3,19.5-3.3,27.5-9.7c8.6-6.9,13.8-16,15.7-26.8c4.3-24.8-12.8-47.9-37.8-51.3
	c-0.5-0.1-0.9-0.1-1.4-0.2c-3.2-0.5-6.4-0.4-9.6,0c-7.9,1.3-15.3,3.9-21.6,8.9c-12.9,10.3-19,23.8-17.1,40.2
	c2,17.3,11.6,29.2,27.4,36.2c0.8,0.4,2.2,0.2,2.2,1.7c-4.5-0.4-8.6-2.3-12.5-4.4C84.2,133.1,73,118.3,70,98
	c-2.6-17.7,2-33.7,13.6-47.5c9.5-11.4,21.8-17.8,36.2-20.5c1.1-0.2,2.3,0.2,3.3-0.5c5.2-0.4,10.3-0.2,15.5,0.4
	c5.3,1.3,10.6,2.5,15.6,4.9c18.1,8.8,29.5,23,33.6,42.7C189.7,86.7,189.7,95.9,188.7,105.1z"/>
<path class="st7" d="M114.6,147.1c-8-3.2-15.1-7.6-20.6-14.4c-21.5-26.3-7.2-66.2,26.2-72.7c1-0.2,2-0.3,3.1-0.5
	c3.5-0.3,6.9-0.2,10.4,0c17,0.8,33.8,14.9,38.6,32.4c8.3,30.1-14.7,58.6-46,57.2c-0.6,0-1.1,0-1.7,0
	C121.2,148.7,117.9,147.9,114.6,147.1z"/>
<path class="st8" d="M133.7,59.4c-3.5,0-6.9,0-10.4,0C126.8,58.7,130.2,58.6,133.7,59.4z"/>
<path class="st9" d="M156.9,83.7c-0.4,6.1-2.6,11.5-7.8,15.4c-5.6,4.2-11.4,1.6-12-5.3c-0.6-6.4,1.7-11.9,6.3-16.3
	c2.6-2.4,5.6-4.1,9.3-2.5C156.1,76.7,156.7,80,156.9,83.7z"/>
</svg>
