<svg xmlns="http://www.w3.org/2000/svg" xmlns:xlink="http://www.w3.org/1999/xlink" viewBox="0 0 485 439"><style>.st0{fill:none}.st1{fill:transparent}.st2{fill:#c3bfba}.st3{fill:url(#SVGID_1_)}</style><pattern x="25.5" y="121.2" width="476.8" height="436.4" patternUnits="userSpaceOnUse" id="New_Pattern_2" viewBox="476.8 -872.8 476.8 436.4" overflow="visible"><path class="st0" d="M476.8-872.8h476.8v436.4H476.8z"/><path class="st1" d="M961.8 0h-485v-439h485z"/><path class="st2" d="M714.3-436.4h.8v-.8h-.8v.8zM896.1-438.7c-.3.1-.8 0-.8.4.3-.1.8-.1.8-.4zM478-437.6c-.3.1-.8 0-.8.4.4-.1.8 0 .8-.4zM484.2-438.7c-.1-.1-.6.2-.4.4.1.1.6-.2.4-.4zM588.8-437.2c-.1-.1-.6.2-.4.4.1.1.6-.2.4-.4z"/><g><path class="st1" d="M485 0H0v-439h485z"/></g><g><path class="st1" d="M961.8-436.4h-485v-439.1h485z"/><path class="st2" d="M604.4-732.7c.2-.1 0-.2 0 0zM791.8-691.8c.1.1.6-.2.4-.4-.1 0-.6.2-.4.4zM793.4-741.6c0-.4-.7-.5-.8 0 .1.5.4.3.8 0zM793-838.5c-.1-.1-.6.2-.4.4.1.1.6-.2.4-.4zM789.9-457v1.5h1.2c0-.9-.6-1.2-1.2-1.5zM791.5-781.3c-.1-.1-.6.2-.4.4.1.1.6-.2.4-.4zM792.6-847.8c0 .2-.1.5-.4.4v.8c1 .6 1.2-1.3.4-1.2zM797.2-798.7c-.1-.1-.6.2-.4.4.2.1.7-.2.4-.4zM796.9-695.2c.1.1.6-.2.4-.4-.2-.1-.6.2-.4.4zM784.5-588.7c.3-.1.8 0 .8-.4-.3.1-.8.1-.8.4zM795.7-456.2c-.5.5-.2 1.5.4 1.9 0-1.4.7-1.1 1.2-.4.3-.8 1.3-1.6 0-1.9-.4 1.1-.6.4-1.6.4zM785.7-816.9c-.1-.1-.6.2-.4.4.1.1.6-.2.4-.4zM794.2-685.2v.8h1.2c0-.7-.5-.9-1.2-.8zM794.5-700.6c.3-.1.8 0 .8-.4-.3.1-.7 0-.8.4zM815.4-744.7c-.7 0-1 .3-1.2.8.7 0 1-.3 1.2-.8zM811.9-513.4c-.1-.1-.6.2-.4.4.1.1.6-.2.4-.4zM810.8-783.3c.1-.6.6-.7.8-1.2-.2 0-.5-.1-.4-.4h-.8c0 .7-.2 1.5.4 1.6zM811.5-831.5c0 .2.3.4.4 0 0-.2-.3-.5-.4 0zM810.8-624.6v1.2h1.2c0-.9-.4-1.2-1.2-1.2zM803.8-683.3v-.8h-.8v.8h.8zM806.5-591.4h-.8v.8h.8v-.8zM800.3-505.6c-.1.7.4.9.4 1.6 1.7.1 1.4-2.2-.4-1.6zM800.3-569.4c-.3.9 1.5.8 1.2 0-.1-.3-1-.4-1.2 0zM800.7-564.7c.1.1.6-.2.4-.4-.1-.1-.6.2-.4.4zM801.9-516.1c-.1-.1-.6.2-.4.4.1.1.6-.2.4-.4zM799.2-506.8c.1.1.6-.2.4-.4-.1-.1-.6.2-.4.4zM801.9-659.3c0-.2-.3-.4-.4 0 0 .2.3.4.4 0zM805.4-528.8c0 .4.7.5.8 0-.5 0-.7-.6-.8 0zM798-555.1c.1.1.6-.2.4-.4-.1-.1-.6.2-.4.4zM800.3-545.8c-.3.1-.8 0-.8.4.4-.1.8 0 .8-.4zM812.3-562c-.1-.1-.6.2-.4.4.1.1.6-.2.4-.4zM776.8-518.8c-.3.1-.8 0-.8.4.3-.1.8 0 .8-.4zM775.2-524.9c0 .5-.2.8-.4 1.2h1.2c0-.7.1-1.4-.8-1.2zM775.6-479.8c.3-.1.8 0 .8-.4-.3.1-.8.1-.8.4zM774.9-568.6c.1.1.6-.2.4-.4-.2-.1-.6.2-.4.4zM776.4-441.5c-.5-.1-.7-.6-1.5-.4-.3 1.3 1.4 1.5 1.5.4zM776.8-480.9c-.1-.1-.6.2-.4.4.1.1.6-.2.4-.4zM781.4-673.6c-.9 1.3 1.3-.9 0 0zM781-853.2c-1 1.2 1.2-1 0 0zM777.6-675.5c.4 0 .5.3.8.4 0-.4.3-.5.4-.8-.4 0-.5-.3-.8-.4 0 .4-.4.5-.4.8zM781-534.6c.1.1.6-.2.4-.4-.1-.1-.6.2-.4.4zM778.7-694.5c-.1 1 .5 1.3 1.5 1.2.5-1.3-.5-1.3-1.5-1.2zM778.7-645.8c.3-.1.8 0 .8-.4-.3.1-.8 0-.8.4zM784.1-538.1c-.3.9 1.5.8 1.2 0-.1-.3-1-.4-1.2 0zM783-625.3c0-.2-.3-.4-.4 0 0 .2.3.4.4 0zM769.5-633.4c-1.3-.1-1.9.5-1.9 1.5.6.6 2.2 0 1.9-1.5zM759-499.5c.1.1.6-.2.4-.4-.1-.1-.6.2-.4.4zM781-476.7c.1-1.7-.7-2.4-1.5-3.1-.9.6.8 1.2-.8 1.2-.8-.1-.4-1.4-1.2-1.5.4 1.4-1.4.6-1.2 1.9 2.1 0 2.5 3 4.7 1.5zM780.7-438.8c.5-1.2 1.5.6 1.9-.4.2-2-3.6-1-1.9.4zM779.5-680.9c.5.1.7.5 1.5.4v-1.2c-.8-.1-1.4.1-1.5.8zM788.8-499.1c-.1-.1-.6.2-.4.4.1.1.6-.2.4-.4zM787.2-482.9h-.8v.8h.8v-.8zM788-797.9c0-.4-.7-.5-.8 0 .4-.1.6.5.8 0zM787.2-533.8c-.1-.1-.6.2-.4.4.1.1.6-.2.4-.4zM789.1-496.4c-.1-.1-.6.2-.4.4.2.1.6-.2.4-.4zM789.5-467c-.1-.1-.6.2-.4.4.2.1.6-.2.4-.4zM782.2-692.1c-.1-.1-.6.2-.4.4.1.1.6-.2.4-.4zM784.5-442.3c.1.5.4.2.8 0 0-.4-.7-.5-.8 0zM784.5-491.7v1.5h1.9c.3-1.4-.6-1.7-1.9-1.5zM786.1-858.2c-.2 1.2 1 1.1 1.5 1.5-.1-.8-.2-1.7-1.5-1.5zM786.8-740.8c-.9 1.3 1.3-.9 0 0zM786.1-850.5c.1.1.6-.2.4-.4-.2 0-.6.2-.4.4zM776.8-575.9c0-.2-.3-.4-.4 0 0 .2.3.4.4 0zM775.6-536.5c1.5.2 3 1.9 4.2 1.2-.4-1.4-2.1-1.5-2.3-3.1-.7 0-1.2-.1-1.5-.4.3 1.1-.6 1.1-.4 2.3zM782.6-679.8c-.1-.1-.6.2-.4.4.1.1.6-.2.4-.4zM836.6-576.3c.4 0 .6.6.8 0 0-.4-.7-.5-.8 0zM812.7-764.7c0-.4-.7-.5-.8 0 .1.4.4.2.8 0zM836.6-481.7c-.3.1-.8 0-.8.4.4-.1.8 0 .8-.4zM836.2-566.6c-.1-.1-.6.2-.4.4.2 0 .6-.3.4-.4zM850.9-833.8c0-.2-.3-.4-.4 0 0 .2.3.4.4 0zM851.3-756.2v.8h1.2c0-.8-.4-1-1.2-.8zM835.5-480.2c.1.1.6-.2.4-.4-.2 0-.6.2-.4.4zM852.8-588.3c-.5 0-.5-.5-1.2-.4-.5 1 1.4 1.2 1.2.4zM852.1-808c-.1-.1-.6.2-.4.4.1.1.6-.2.4-.4zM842-516.1v-1.2c-.7 0-1.2.1-1.5.4-.4 1.2.8.7 1.5.8zM853.2-454.3c0 .2.3.4.4 0 0-.2-.3-.4-.4 0zM842-462c-.3 2.3 1.8.2 0 0zM842.4-789.4c-.3.1-.8 0-.8.4.3-.1.8-.1.8-.4zM838.2-786.4c-.1-.1-.6.2-.4.4.1.1.6-.2.4-.4zM847-750.8c-1.2-.3-1.4.4-2.3.4-.3 3.7 3.8 2.6 2.3-.4zM845.1-735.4c1.3 1.2 1.2-1.4 0 0zM845.5-682.1h1.5c.3-1.5-1.6-1.3-1.5 0zM844.3-791c1.3 1.2 1.2-1.4 0 0zM846.7-642.7h-.8v.8h.8v-.8zM844.7-823c-.9 1.3 1.3-1 0 0zM845.9-675.5c-.6.6-.4 1.7.8 1.5.7-.7-.1-1.2-.8-1.5zM851.3-487.1c.6-1-1.3-1.1-1.2-.4.2 0 .5.1.4.4h.8zM843.2-643.9h.8v-.8h-.8v.8zM843.2-618h.8v-.8h-.8v.8zM843.6-579c.7 0 1.2.1 1.5.4.3-1.3-1.5-1.5-1.5-.4zM843.2-721.9c.3-.1.8 0 .8-.4-.3.1-.8.1-.8.4zM849-862.4c0 .2.3.4.4 0 0-.2-.4-.5-.4 0zM849-575.1h.8v-.8h-.8v.8zM848.2-670.1c-.1-.1-.6.2-.4.4.1.1.6-.2.4-.4zM850.9-554.7c.2-1.2-.8-1.2-1.9-1.2-.1 1.1.9 1.2 1.9 1.2zM848.6-670.9c-.9 1.3 1.3-.9 0 0zM847.8-642.3c-.1-.1-.6.2-.4.4.1.1.6-.2.4-.4zM845.1-629.6v.8h1.2c0-.7-.4-.9-1.2-.8zM844.3-608.7v.8c.4 0 .5.3.8.4 0-.7.1-1.4-.8-1.2zM844.3-616.5c.2 1.2-.9 1.6.4 1.9.3-.2 1-2.2-.4-1.9zM847.8-743.1c-.3.1-.8 0-.8.4.3-.1.8 0 .8-.4zM838.9-569h-1.2c-.1.8.3 1.2 1.2 1.2v-1.2zM819.3-570.5c-1.2 1.3 1.4 1.2 0 0zM819.6-837.3c-.1-.1-.6.2-.4.4.2.1.6-.2.4-.4zM821.2-559.3c-.9 1.3 1.3-.9 0 0zM820-670.9c.5-.1 1.1.1 1.2-.4-.5.1-1.1-.1-1.2.4zM818.9-676.3c-.1-.1-.6.2-.4.4.1.1.6-.2.4-.4zM819.6-822.3h-.8v.8h.8v-.8zM820-630c0-.2-.3-.4-.4 0 0 .2.4.5.4 0zM819.3-608c.1.1.6-.2.4-.4-.2-.1-.6.2-.4.4zM813.1-710.7c-.3 2.4 1.7.3 0 0zM814.6-543.1c-.7-.1-.9-.7-.8-1.5h-1.2c-1.4 1.1 1.2 2.7 2 1.5zM810-482.5h-.8v.8h.8v-.8zM834.3-770.9c.1.1.6-.2.4-.4-.1-.1-.6.2-.4.4zM808.1-471.3c.1.1.6-.2.4-.4-.2-.1-.6.2-.4.4zM809.2-557.4c-.1-.1-.6.2-.4.4.1.1.6-.2.4-.4zM810-862.8c.9.1 1.5-.1 1.5-.8-.8-.1-1.4.1-1.5.8zM809.2-573.6h-.8v.8h.8v-.8zM809.2-600.2h-.8v.8h.8v-.8zM827.7-682.5c-.3.1-.8 0-.8.4.4-.1.8 0 .8-.4zM828.5-526.9c-.6 0-1.3-.1-1.2.8.7 0 1-.3 1.2-.8zM827.7-665.9c0-.7-.3-1-.8-1.2-.5.6-.5 1.6.8 1.2zM828.5-709.9c-.1-.1-.6.2-.4.4.1.1.6-.2.4-.4zM828.5-616.1c-.1-.1-.6.2-.4.4.1.1.6-.2.4-.4zM829.3-763.6c-1.1-.5-2.3.7-1.2 1.2-.1-.9 1.1-.4 1.2-1.2zM830.8-572.1c0 .2.3.4.4 0 0-.2-.3-.4-.4 0zM830.8-799.1v.8c.4 0 .5.3.8.4 0-.6.1-1.4-.8-1.2zM832-650.4c.1.1.6-.2.4-.4-.1-.1-.6.2-.4.4zM816.9-769.8v.8h.8v-.8h-.8zM818.1-437.7c0-.2-.3-.4-.4 0 0 .2.3.5.4 0zM824.7-532.7c-.3.1-.8 0-.8.4.3-.1.7 0 .8-.4zM818.1-767.8c-.1-.1-.6.2-.4.4.1.1.6-.2.4-.4zM818.5-443.1c-.1-.1-.6.2-.4.4.1.1.6-.2.4-.4zM822-531.1c-1.2 1.3 1.4 1.1 0 0zM826.2-770.1v-.8c-.7-1.3-1.9 1.1 0 .8zM823.1-519.2c-.5.1-1.1-.1-1.2.4.5 0 1.2.1 1.2-.4zM823.1-437.3c-.1-.1-.6.2-.4.4.1.1.6-.2.4-.4zM824.3-473.6h-.8c0 .4-.3.5-.4.8.6-.1 1.4 0 1.2-.8zM838.2-503.7c0 .2.3.4.4 0 0-.2-.4-.4-.4 0zM740.1-442.7c.1.1.6-.2.4-.4-.1-.1-.6.2-.4.4zM740.9-453.1c0-.4-.7-.5-.8 0 .5-.1.6.5.8 0zM735.5-525.3h-.8v.8h.8v-.8zM734.7-825c-.3.1-.8 0-.8.4.3-.1.8 0 .8-.4zM733.6-453.5c-1 1.3 1.3-.9 0 0zM733.9-614.5c-.1-.1-.6.2-.4.4.2.1.6-.2.4-.4zM747.5-695.6c.1.1.6-.2.4-.4-.2-.1-.6.2-.4.4zM748.6-658.5h-.8v.8h.8v-.8zM746.3-777.9c.1.5-.1 1.1.4 1.2 0-.6 1-.3.8-1.2h-1.2zM746.3-519.2c-.1.5-.6.7-.4 1.5 1.3.4 1.5-1.4.4-1.5zM749-481.3c-.6.1-1.4-.1-1.5.4.5.5 1.4.5 1.5-.4zM745.9-447.3c.6 1.4-1.3.2-1.2 1.2.7 1.1 2.4-.6 1.2-1.2zM747.1-530c.5-.1 1.1.1 1.2-.4-.5.1-1.2 0-1.2.4zM748.2-589.4c-.1-.1-.6.2-.4.4.2.1.6-.2.4-.4zM747.5-449.3c0-.5.2-.8.4-1.2h-.8c-.5.6-.4 1 .4 1.2zM748.2-455.4c-.3.1-.8 0-.8.4.4-.1.8-.1.8-.4zM742.4-491c-1.8-1-.9 1.3 0 0zM741.7-627.3v1.2h.8c0-.4.3-.5.4-.8-.6 0-.6-.5-1.2-.4zM739-600.6c-.1-.1-.6.2-.4.4.1.1.6-.2.4-.4zM742.1-597.5c.1.5.4.2.8 0-.1-.4-.8-.5-.8 0zM738.6-586c.1.1.6-.2.4-.4-.1 0-.6.2-.4.4zM740.5-821.1c-.1-.1-.6.2-.4.4.1.1.6-.2.4-.4zM740.5-491.7c-.9 1.3 1.3-1 0 0zM740.1-454.3c-.3.1-.8 0-.8.4.4-.1.8 0 .8-.4zM739.4-457.8h-.8v.8h.8v-.8zM741.7-552c-.4 0-.6-.6-.8 0 0 .4.7.5.8 0zM745.1-691.8c.1.1.6-.2.4-.4-.1 0-.6.2-.4.4zM745.1-483.2c.1.1.6-.2.4-.4-.1-.1-.6.2-.4.4zM744.8-840.8c.3-.1.8 0 .8-.4-.4.1-.8 0-.8.4zM737-492.5c.5 0 .5.5 1.2.4 0-.7-.3-1-.8-1.2 0 .4-.3.5-.4.8zM744.4-865.9c.1.1.6-.2.4-.4-.1-.1-.6.2-.4.4zM762.1-871.3v1.2c1.2.5 1.2-1.8 0-1.2zM742.1-699.1c-.1-.1-.6.2-.4.4.1.1.6-.2.4-.4zM743.2-750.4c0-.6 1-.3.8-1.2-.8-.3-1.7 1-.8 1.2zM743.6-659.7c-.5.5-.5 1.4 0 1.9 1 0 1.4-.7 1.9-1.2-1.2.4-.4-1.3-1.9-.7zM743.6-542.7c0 .4.7.5.8 0-.5 0-.6-.6-.8 0zM744-518.4c.6-.6.4-1.7-.8-1.5-.1.9.1 1.4.8 1.5zM725.5-564.3c-.3.1-.8 0-.8.4.3-.1.7-.1.8-.4zM723.1-511h-.8v.8h.8v-.8zM722.8-522.2c-.5-.5-1.9-.6-1.9.4.5-.3 1.9.4 1.9-.4zM721.6-690.2c-1.4 1.8 2.3.5 0 0zM720.8-552.4c.6 0 1.3.1 1.2-.8h-.8c0 .5-.3.5-.4.8zM717.7-672.8c0-.4-.7-.5-.8 0 .1.4.5.2.8 0zM718.5-608.7c-.5-.1-.7-.6-1.5-.4v1.9c1.2.2 1.7-.3 1.5-1.5zM720.8-461.6c-.9 1.3 1.3-1 0 0zM723.1-734.6c-.1-.1-.6.2-.4.4.2.1.6-.2.4-.4zM723.9-610.3c-.4 0-.6-.6-.8 0 0 .4.7.5.8 0zM722-580.6c.1.1.6-.2.4-.4-.1 0-.6.2-.4.4zM723.9-511.8c-.1-.1-.6.2-.4.4.1.1.6-.2.4-.4zM719.3-578.6h-.8v.8h.8v-.8zM702.7-448.5c.1.1.6-.2.4-.4-.1-.1-.6.2-.4.4zM723.5-614.1c-1.1 1.3 1.5 1.1 0 0zM704.6-479.8c.6-.7.2-2.8-1.2-2.7-.8.6-2 .8-2.3 1.9 1.4.4 1.1-1 2.3-.8 0 1.1.6 1.3 1.2 1.6zM720.1-451.6h-.8v.8h.8v-.8zM718.9-608c.1.1.6-.2.4-.4-.1-.1-.6.2-.4.4zM719.7-531.1c0-.4-.7-.5-.8 0 .1.4.4.2.8 0zM719.7-672.8c-.9-.1-1.4.1-1.5.8.6-.2 1.9.3 1.5-.8zM720.1-664h-.8v.8h.8v-.8zM750.2-545.4c.1.1.6-.2.4-.4-.2-.1-.6.2-.4.4zM725.8-526.5c.6-1-1.3-1.1-1.2-.4.2 0 .5.1.4.4h.8zM747.1-448.5c1.9 1.1 1.4-1.3 0 0zM724.3-690.2c-.9 1.3 1.3-.9 0 0zM715.4-645.8c.1.1.6-.2.4-.4-.1-.1-.6.2-.4.4zM715.4-480.5v1.2c1.1.5 1.1-1.8 0-1.2zM715-626.1c.1.7.3 1.3.8 1.5-.1-.7.4-1.9-.8-1.5zM715-626.9c0 .2.3.4.4 0 0-.2-.3-.4-.4 0zM714.3-872.8h.8v-.8h-.8v.8zM717-452.7c.3-1.5-1.7-1.4-2.3-.8 0 1.4 1.3 1.1 2.3.8zM713.5-734.6c.1.1.6-.2.4-.4-.1-.1-.6.2-.4.4zM718.1-596.4h-.8c0 .4-.3.5-.4.8.7 0 1.4 0 1.2-.8zM769.1-805.7h.8v-.8h-.8v.8zM770.6-832.3c0-.2-.3-.4-.4 0 0 .2.3.4.4 0zM769.8-695.6c0-.2-.3-.4-.4 0 .1.2.4.4.4 0zM769.1-862c.3-.1.8 0 .8-.4-.4.1-.8 0-.8.4zM766-479.4c-.5.5-.5 1.4 0 1.9.7.1.9-.4 1.5-.4.2-1.1-.3-1.7-1.5-1.5zM767.5-440.8c-.1-.1-.6.2-.4.4.2.1.6-.2.4-.4zM770.2-533.4c-.1.5-.6.7-.4 1.5 1.1.6 1.1-1.7.4-1.5zM766.4-451.2c0 .2.3.4.4 0 0-.2-.4-.4-.4 0zM774.5-543.9c-.1-.1-.6.2-.4.4.1.1.6-.2.4-.4zM774.5-578.2c0-.2-.3-.4-.4 0 0 .2.3.4.4 0zM751.3-460.5c.3-.1.8 0 .8-.4-.3.1-.8.1-.8.4zM774.1-808c-.1-.1-.6.2-.4.4.1.1.6-.2.4-.4zM753.6-662.4c.1.1.6-.2.4-.4-.1-.1-.6.2-.4.4zM752.9-494.8h-.8c0 .4-.3.5-.4.8.6-.1 1.3 0 1.2-.8zM772.2-658.5v-.8h-.8v.8h.8zM772.9-823.4v.8c.4 0 .5.3.8.4 0-.7.1-1.4-.8-1.2zM772.9-737.3c-.3.1-.8 0-.8.4.4-.1.8 0 .8-.4zM767.1-816.1c0-.5-.1-.9-.8-.8.1.5-.1 1.1.4 1.2.1-.2.1-.5.4-.4zM761.7-672.8c0 .1-.7.4-.4.8.3.2 1.3-2.3.4-.8zM761.4-530.4c-.3.1-.8 0-.8.4.3-.1.7 0 .8-.4zM763.3-834.2c-.1-.1-.6.2-.4.4.1.1.6-.2.4-.4zM760.6-540c0-.2-.3-.4-.4 0 0 .2.3.4.4 0zM760.2-683.6c0-.4-.7-.5-.8 0 .1.4.5.2.8 0zM761.7-833.5c-.1-.1-.6.2-.4.4.2.1.6-.2.4-.4zM759-437.3v.6h.8v-.6h-.8zM759.8-690.2c-.1-.1-.6.2-.4.4.1.1.6-.2.4-.4zM766.4-488.3c-.4 0-.6-.6-.8 0 0 .4.7.5.8 0zM764.8-572.8v1.2c1.2.5 1.2-1.8 0-1.2zM764.1-799.1c.1.1.6-.2.4-.4-.2-.1-.6.2-.4.4zM765.2-493.3c-.3.1-.8 0-.8.4.3-.1.8 0 .8-.4zM766-654.7h.8v-.8h-.8v.8zM752.1-804.5c1 .1 1.7-.1 1.5-1.2-.7.2-1.6.2-1.5 1.2zM764.1-605.3h.8v-.8h-.8v.8zM764.8-526.5c-.4 0-.5-.3-.8-.4-1 .6.6 1.3.8.4zM765.6-594.1c-.3.1-.8 0-.8.4.3-.1.8 0 .8-.4zM768.3-691.8c0-.4-.7-.5-.8 0 .1.5.5.3.8 0zM728.5-616.1c.3-.1.8 0 .8-.4-.3.1-.7 0-.8.4zM728.9-463.6c-.5.1-1.1-.1-1.2.4.5 0 1.2.1 1.2-.4zM728.9-554.7c-.9 1.3 1.3-.9 0 0zM728.9-544.6c-.1-.1-.6.2-.4.4.2.1.6-.2.4-.4zM729.7-491h-.8v.8h.8v-.8zM726.2-531.1h.8v-.8h-.8v.8zM731.2-716.9c0-1.1-1.8-.9-2.3-.4-.1.7.4.9.4 1.5 1.1.2 2.1.2 1.9-1.1zM727-641.2c0 .4-.3.5-.4.8.5 0 .5.5 1.2.4 0-.7-.3-1-.8-1.2zM732.8-699.9c-.1-.1-.6.2-.4.4.1.1.6-.2.4-.4zM730.9-579c-.3.1-.8 0-.8.4.3-.1.7 0 .8-.4zM731.2-797.2c0-.2-.3-.4-.4 0 .1.2.4.5.4 0zM732.8-516.5c0-.2-.3-.4-.4 0 0 .3.3.5.4 0zM729.3-809.5c0 .5-.5.5-.4 1.2h.8c.4-.6.4-1-.4-1.2zM733.2-451.2c0-.2-.3-.4-.4 0 0 .2.3.4.4 0zM732.4-726.1v.8c.4 0 .5.3.8.4-.1-.7 0-1.4-.8-1.2zM753.2-591.4h-.8v.8h.8v-.8zM730.9-607.6c-1 1.3 1.3-.9 0 0zM731.2-669c0-.4-.7-.5-.8 0 .5 0 .7.6.8 0zM730.9-551.6v.8c.4 0 .5.3.8.4-.1-.6 0-1.4-.8-1.2zM730.9-825.4c-.6 1.9 1.3 2.4 2.3 1.5-.1-1.1-.9-1.6-2.3-1.5zM757.1-689.4c.3-.1.8 0 .8-.4-.3.1-.8 0-.8.4zM755.2-550.8c.3-1.7-1.5-1.8-1.9-.8.4.4.6 1.1 1.9.8zM754.4-448.9c.1-.4-.3-1-.4-.4 0 .4.3 1 .4.4zM756-528.8c0-.4-.7-.5-.8 0 .1.5.4.2.8 0zM755.2-634.2c-.1-.1-.6.2-.4.4.1.1.6-.2.4-.4zM754.4-686c0 .2.3.4.4 0 0-.2-.3-.4-.4 0zM755.2-722.3c.1.5-.1 1.1.4 1.2 0-.2.1-.5.4-.4-.1-.5-.2-.9-.8-.8zM754.4-543.5c0-.2-.3-.4-.4 0 0 .2.3.5.4 0zM751.7-588.3h1.2c.1-.7-.4-.9-1.2-.8v.8zM752.9-532.3c.1.1.6-.2.4-.4-.2-.1-.6.2-.4.4zM753.6-462.4c-.5 0-.5-.5-1.2-.4-.5 1 1.4 1.2 1.2.4zM753.6-534.2c-.9 1.3 1.3-.9 0 0zM758.3-774.4c0-.4-.7-.5-.8 0 .1.5.4.3.8 0zM758.3-472.4h-.8v.8h.8v-.8zM756.3-569.4c-.8.8 0 1.3.8 1.5.1-.8-.1-1.4-.8-1.5zM757.1-610.3c-.4 2.3 1.7.2 0 0zM758.3-605.7c-.1-.1-.6.2-.4.4.1.1.6-.1.4-.4zM757.9-711.8c-.5.3-.1.4.4 0 .4-.4.1-.3-.4 0zM961.7-648.1c-.1-.1-.6.2-.4.4.1.1.6-.2.4-.4zM961.3-843.9c.1.1.6-.2.4-.4-.1-.1-.6.2-.4.4zM958.6-604.1c.1.1.6-.2.4-.4-.1-.1-.6.2-.4.4zM959-830.4c-.1-.1-.6.2-.4.4.1.1.6-.2.4-.4zM961.8-525.7v-.4c-.1.1-.3.2-.2.4h.2zM959.8-714.1c-.1-.1-.6.2-.4.4.1 0 .6-.3.4-.4zM943.2-765.5c-.1-.1-.6.2-.4.4.1.1.6-.2.4-.4zM941.6-641.9c.3-.1.8 0 .8-.4-.3.1-.8 0-.8.4zM941.2-835.8c.3-.1.8 0 .8-.4-.3.1-.8 0-.8.4zM944.3-532.3c0-1.8-2-1.9-2.3-.4.5.5 1.4.5 2.3.4zM941.6-596c0-.2-.3-.4-.4 0 0 .2.3.4.4 0zM943.2-446.9c.1-1.2-1.3-.8-1.9-1.2-.1 1.1.9 1.1 1.9 1.2zM949.7-719.2c.1.1.6-.2.4-.4-.1-.1-.6.2-.4.4zM944.7-736.2c0-.4-.7-.5-.8 0 .5 0 .6.6.8 0zM950.1-751.6c-.1-.1-.6.2-.4.4.1.1.6-.2.4-.4zM950.5-672.8c-.3.1-.8 0-.8.4.3-.1.8-.1.8-.4zM949.7-544.6c.1.1.6-.2.4-.4-.1-.1-.6.2-.4.4zM937.4-697.9c.3-.1.8 0 .8-.4-.4.1-.8 0-.8.4zM937.4-699.5c.1.1.6-.2.4-.4-.2-.1-.6.2-.4.4zM936.6-729.6h.8v-.8h-.8v.8zM937-577.5c-.1-.1-.6.2-.4.4.1.1.6-.2.4-.4zM936.2-868.2c-.1-.1-.6.2-.4.4.1.1.6-.2.4-.4zM936.6-505.3h-.8v.8h.8v-.8zM939.7-668.6c0 .7.3 1 .8 1.2 0-.7-.3-1-.8-1.2zM940.1-716.9c-.1-.1-.6.2-.4.4.1.1.6-.2.4-.4zM939.7-540.8c.1.1.6-.2.4-.4-.1-.1-.6.2-.4.4zM945.9-741.2c-1 1.3 1.3-.9 0 0zM954.4-454.3c-.6-.1-.7-.6-1.2-.8v1.2h.8c.2 0 .4-.1.4-.4zM954-596.4c0-.2-.3-.4-.4 0 0 .2.3.5.4 0zM953.2-812.6c.1.1.6-.2.4-.4-.1-.1-.6.2-.4.4zM951.3-677.5h-1.5v.8c.6-.1 1.9.4 1.5-.8zM960.9-540.4c-.3.1-.8 0-.8.4.3-.1.8 0 .8-.4zM955.9-611.1c.4 0 .6.6.8 0 0-.3-.7-.4-.8 0zM955.5-465.5c.1-.9-.1-1.5-.8-1.5-.6.5-.4 1.7.8 1.5zM951.6-540.8c-.1-.1-.6.2-.4.4.2.1.7-.2.4-.4zM946.6-703.7c0 .5-.2.8-.4 1.2.7-.2 1.6-.2 1.9-.8-.7 0-.8-.5-1.5-.4zM947-658.9c.1-.5.7-.9 0-1.2 0 .5-.7.9 0 1.2zM945.5-728.4c.1.1.6-.2.4-.4-.2-.1-.6.2-.4.4zM960.1-455.1c-.1-.1-.6.2-.4.4.2.1.6-.2.4-.4zM854-453.5c-.1-.1-.6.2-.4.4.1.1.6-.2.4-.4zM938.1-653.5c-.5.1-1.1-.1-1.2.4.5-.1 1.2 0 1.2-.4zM876.8-545c-.1-.6.1-1.4-.4-1.5-.5.4-.5 1.4.4 1.5zM877.2-825c0-.2-.3-.4-.4 0 0 .2.3.5.4 0zM877.5-521.9c-.3.1-.8 0-.8.4.4-.1.8 0 .8-.4zM875.2-450c-.1-.1-.6.2-.4.4.1.1.6-.2.4-.4zM877.2-809.9c0 .2.3.4.4 0-.1-.2-.4-.4-.4 0zM874.5-580.2c.5.1.9.7 1.2 0-.5 0-1-.7-1.2 0zM874.5-574.8c-.1.2.6.8.8.8.9-.3-.3-2.2-.8-.8zM876.8-593.7c-.3-.9-2.2-.1-3.1-.4-.1.9.1 1.5.4 1.9.9-.4 2.6-.1 2.7-1.5zM875.6-745.8c-.9 1.3 1.3-.9 0 0zM878.3-641.2c0-.2-.3-.4-.4 0 0 .2.3.5.4 0zM877.9-496.4h.8v-.8h-.8v.8zM874.5-530.4c-.4 0-.6-.6-.8 0 0 .4.7.5.8 0zM878.3-637.3c0 .2.3.4.4 0 0-.2-.3-.5-.4 0zM877.9-854.3c-.1 1.2 1.4.9 1.9 1.5.2-2-1.3-.9-1.9-1.5zM879.1-459.3c-.3.1-.8 0-.8.4.3-.1.8 0 .8-.4zM878.3-533.4c0-.2-.3-.4-.4 0 0 .2.3.4.4 0zM878.3-571.7c.1.1.6-.2.4-.4-.1-.1-.6.2-.4.4zM875.2-443.5v-1.2c-.7 0-1.2.1-1.5.4-.4 1.2.8.7 1.5.8zM890.3-536.1v-.8h-.8v.8h.8zM884.5-508.7c.1.1.6-.2.4-.4-.1-.1-.6.2-.4.4zM887.6-661.3c-.3.1-.8 0-.8.4.3-.1.8 0 .8-.4zM886.8-443.9c.1.1.6-.2.4-.4-.1-.1-.6.2-.4.4zM884.1-513.7v1.2h.8c0-.5.5-.5.4-1.2h-1.2zM881.8-587.1h-.8v.8h.8v-.8zM893.7-579.4c-.1-.1-.6.2-.4.4.2.1.7-.2.4-.4zM879.5-843.9c-.3.1-.8 0-.8.4.3-.1.8 0 .8-.4zM881.4-570.5v1.2c1.1.5 1.1-1.8 0-1.2zM885.6-635.4c.1.1.6-.2.4-.4-.1-.1-.6.2-.4.4zM886-640.8c-.1-.1-.6.2-.4.4.2.1.6-.2.4-.4zM882.9-853.5c-.9 1.3 1.3-1 0 0zM886.4-855.9c-.3.1-.8 0-.8.4.3-.1.8 0 .8-.4zM889.1-835.8c-2.5-.4-.8 1.2 0 0zM884.9-554.3c0-.2-.3-.4-.4 0 0 .2.3.4.4 0zM882.2-684.8v.8h1.2c0-.7-.5-.9-1.2-.8zM882.6-486.3c0 .5-.5.5-.4 1.2h.8c.4-.6.4-1-.4-1.2zM882.9-766.7c.1.1.6-.2.4-.4-.1-.1-.6.2-.4.4zM882.6-504.9c.2 0 .5.1.4.4h.8c.5-.9-1.4-1.1-1.2-.4zM884.1-833.8c0 .2-.1.5-.4.4v.8c1 .5 1.1-1.4.4-1.2zM884.9-520.3c-2-1.1-1.5 1.3 0 0zM869-708.4c-.5-.1-.9-.7-1.2 0 .5.1 1 .7 1.2 0zM855.9-712.2c-.3.1-.8 0-.8.4.4-.1.8 0 .8-.4zM855.2-741.2c-.1-.1-.6.2-.4.4.1.1.5-.2.4-.4zM879.9-816.5c-.1-.1-.6.2-.4.4.1.1.6-.2.4-.4zM857.1-714.9c-.1-.3-1-.5-1.2 0-.2.9 1.5.8 1.2 0zM856.7-706.4c-.3.1-.8 0-.8.4.3-.1.8-.1.8-.4zM855.2-469c-.3.1-.8 0-.8.4.3-.1.7 0 .8-.4zM855.2-813.4c-.3.1-.8 0-.8.4.3-.1.7 0 .8-.4zM854.8-819.9c.5-.5.5-1.4-.4-1.5 0 .5-.2 1.3.4 1.5zM854.4-466.6c.1.1.6-.2.4-.4-.1-.1-.6.2-.4.4zM861.7-747c0 .2.3.4.4 0 0-.2-.3-.4-.4 0zM861.3-860.1c-.1-.1-.6.2-.4.4.1.1.6-.2.4-.4zM861.7-693.7c-.3.1-.8 0-.8.4.3-.1.8 0 .8-.4zM861.7-871.3c-.1.4-.6.4-1.2.4v1.9c2.1.8 2.7-2 1.2-2.3zM859.4-841.2c-.1-.1-.6.2-.4.4.1.1.6-.2.4-.4zM858.2-677.1c.3-.1.8 0 .8-.4-.3.1-.8 0-.8.4zM860.6-567c.3-1.3-1.5-1.5-1.5-.4.6-.1.8.4 1.5.4zM864.8-745.8c.7 0 1-.3 1.2-.8-.6 0-1.4 0-1.2.8zM866.3-597.9c-.1-.1-.6.2-.4.4.2.1.6-.2.4-.4zM893.4-704.9c-.1-.1-.6.2-.4.4.1.1.6-.2.4-.4zM879.9-448.5c.1.1.6-.2.4-.4-.2-.1-.6.2-.4.4zM866.7-493.3c-.3.1-.8 0-.8.4.4-.1.8 0 .8-.4zM880.2-672.8c-.1-.1-.6.2-.4.4.2.1.6-.2.4-.4zM872.9-593.3c.1.1.6-.2.4-.4-.1-.1-.6.2-.4.4zM871-567c-.1-.1-.6.2-.4.4.1.1.6-.2.4-.4zM870.6-589.8h-.8v.8h.8v-.8zM870.2-726.1h-.8v.8h.8v-.8zM869.8-544.6c.1.1.6-.2.4-.4-.1-.1-.6.2-.4.4zM869.4-815.3c-.1-.1-.6.2-.4.4.2.1.6-.2.4-.4zM872.1-708.7c-.9-.1-.9-1.2-1.5-1.5-.1.3-.3.4-.8.4-.1.7.4.9.4 1.6.6-.4 2 .3 1.9-.5zM867.5-541.6c.1.1.6-.2.4-.4-.1 0-.6.3-.4.4zM868.7-729.2c-.1-.1-.6.2-.4.4.1.1.6-.2.4-.4zM869.8-738.9v.8h1.2c0-.7-.4-.9-1.2-.8zM913.8-689.4c0 .4.7.5.8 0-.4 0-.6-.6-.8 0zM913.4-819.9h.8v-.8h-.8v.8zM915-486.3c-.5 0-.5-.5-1.2-.4v1.2h.8c0-.4.3-.5.4-.8zM915.8-825c-.1-.1-.6.2-.4.4.1.1.6-.2.4-.4zM915.4-521.5h-.8v.8h.8v-.8zM915-734.2c-1 1.3 1.3-1 0 0zM923.5-840.4c-.1-.1-.6.2-.4.4.1.1.6-.2.4-.4zM922.3-809.5c-1.5-1.4-.9 1.2 0 0zM923.1-524.2c.1.1.6-.2.4-.4-.1-.1-.6.2-.4.4zM922.7-705.3c-.1.8.3 1.2 1.2 1.2 0-.9-.4-1.2-1.2-1.2zM919.2-650.4c0-.2-.3-.4-.4 0 0 .2.4.4.4 0zM918.8-646.6c.1.1.6-.2.4-.4-.1-.1-.6.2-.4.4zM919.2-869.4c-.1-.1-.6.2-.4.4.1.1.6-.2.4-.4zM918.1-770.1c.3-.1.8 0 .8-.4-.4.1-.8 0-.8.4zM918.5-521.1v1.2c1.1.5 1.1-1.8 0-1.2zM916.9-616.5c-.3.1-.8 0-.8.4.3-.1.8 0 .8-.4zM917.3-686.4c1.1.5 1.7-1.6.8-1.9-.2.8-.9 1-.8 1.9zM922.3-762.8c-.1-.1-.6.2-.4.4.1.1.6-.2.4-.4zM929.6-454.7v.8c.4 0 .5.3.8.4 0-.6.1-1.4-.8-1.2zM938.5-694.5c-1.1-.1-2.1 0-1.9 1.2.9-.1 1.7-.4 1.9-1.2zM931.6-587.9c-.1-.1-.6.2-.4.4.1.1.6-.2.4-.4zM930.4-517.6c1.3 1.2 1.2-1.4 0 0zM932.3-704.1v.8h1.2c.1-.7-.4-.9-1.2-.8zM935.1-479.8c0 .2.3.4.4 0-.1-.2-.4-.4-.4 0zM938.9-688.7c-.4 0-.6-.6-.8 0 0 .4.7.5.8 0zM931.2-595.2h-.8c0 .4-.3.5-.4.8.6-.1 1.4 0 1.2-.8zM931.2-726.1c0 .4-.3.5-.4.8.4 0 .5.3.8.4 0-.4.3-.5.4-.8-.4 0-.5-.3-.8-.4zM925-582.1c-.4 0-.6-.6-.8 0 0 .4.7.5.8 0zM924.2-483.6c.1.1.6-.2.4-.4-.1-.1-.6.2-.4.4zM925.4-766.7c0 .2.3.4.4 0 0-.2-.3-.4-.4 0zM926.2-787.1c.1.1.6-.2.4-.4-.1-.1-.6.2-.4.4zM920.8-785.6c.1.1.6-.2.4-.4-.2-.1-.6.2-.4.4zM927.7-607.6v-.8h-.8v.8h.8zM902.2-621.1c-.3.9 1.5.8 1.2 0-.1-.3-1-.5-1.2 0zM905.3-630.4h.8v-.8h-.8v.8zM904.9-826.1c.1.6-.1 1.4.4 1.5.5-.5.5-1.4-.4-1.5zM908.8-619.2c-.1-.1-.6.2-.4.4.1.1.6-.2.4-.4zM910-842h-.8v.8h.8v-.8zM909.2-850.8c0-.2.1-.5.4-.4 0-.5-.1-.9-.8-.8.1.5-.1 1.1.4 1.2zM905.3-672.4c-.9 1.2 1.3-1 0 0zM904.2-479.8c.1-.7-.4-.8-.4-1.5-.9-.1-1.5.1-1.9.4v1.2c1.2.4.8 0 2.3-.1zM910.7-784.4h-1.2c.1.5-.1 1.1.4 1.2.1-.7 1-.4.8-1.2zM911.9-551.6c-.3.1-.8 0-.8.4.3-.1.8 0 .8-.4zM891.8-603.7c.1.1.6-.2.4-.4-.1-.1-.6.2-.4.4zM911.1-472.1c.1.1.6-.2.4-.4-.1 0-.6.3-.4.4zM909.6-770.5c.1.1.6-.2.4-.4-.1-.1-.6.2-.4.4zM911.1-660.5c0-.4-.7-.5-.8 0 .5 0 .7.6.8 0zM919.6-782.9c-.4 2.3 1.7.2 0 0zM896.1-566.6c0 .2.3.4.4 0 0-.3-.4-.5-.4 0zM896.5-851.2c-.7 0-1 .3-1.2.8.7 0 1-.4 1.2-.8zM897.6-492.5v-.8h-.8v.8h.8zM904.9-486.7c.7-.2 2.3.5 1.9-.8h-1.9v.8zM920.4-459.7c-.1-.1-.6.2-.4.4.1.1.6-.2.4-.4zM908-796c-.4.6-1 .9-1.5.4-.4 1.3.5 1.3 1.5 1.2-.3-.8 1.2-1.4 0-1.6zM896.1-875.2c-.3.1-.8 0-.8.4.3-.1.8 0 .8-.4zM895.7-515.7c.1 1.4 1.6 1.5 2.3 2.3.1-1.6-1.1-2-2.3-2.3zM898.4-727.3c.3-.1.8 0 .8-.4-.3.1-.8 0-.8.4zM899.2-774c0 .2.3.4.4 0-.1-.2-.4-.4-.4 0zM899.2-471.3c-.3.1-.8 0-.8.4.3-.1.7 0 .8-.4zM903-544.6c-.1-1.9-1.1-.4-2.3-1.2-.1 1.3 1.7.6 2.3 1.2zM899.9-516.1c.1.1.6-.2.4-.4-.1-.1-.6.2-.4.4zM901.9-677.9c.6-1.2-.3-2-1.2-2.7.3 1.2-1.1.7-.8 1.9.8.2.7 1.2 2 .8zM898-671.7c-.1-.1-.6.2-.4.4.1.1.6-.2.4-.4zM898.4-693.3c-.3.1-.8 0-.8.4.3-.1.8 0 .8-.4zM903-674.8c0 .2-.1.5-.4.4v.8c1 .6 1.2-1.3.4-1.2zM896.8-743.5c.3-.1.8 0 .8-.4-.3.1-.8 0-.8.4zM634-532.3c-.1-.1-.6.2-.4.4.1.1.6-.2.4-.4zM513.9-530c-1-.1-1.9-.1-1.9.8.7-.2 2.3.5 1.9-.8zM513.2-544.6c1.7 0 .5-.9 1.2-1.5-1.3-.4-.6 1.2-1.2 1.5zM513.5-454.7c.1.1.6-.2.4-.4-.1-.1-.6.2-.4.4zM512-438.8c.1.1.6-.2.4-.4-.1-.1-.6.2-.4.4zM512.4-563.2c-.1-.1-.6.2-.4.4.1.1.6-.2.4-.4zM520.1-469.7c1.8-.9 2.2-3.2 1.2-5-1.7.1-1.8.1-2.7.4-.9 1 .6 1.9 1.2 2.7-.6.4-.7 1.8.3 1.9zM523.2-817.2c1.3.5 1.6-2 .8-2.3.1 1.1-.9 1.1-.8 2.3zM514.3-792.9v.8c.4 0 .5.3.8.4 0-.7 0-1.4-.8-1.2zM517.4-612.6c.4 0 .6.6.8 0 0-.4-.7-.5-.8 0zM515.5-617.6c.5.5 1.4.5 1.5-.4-.5-.5-1.4-.5-1.5.4zM520.5-526.1c0-.2-.3-.4-.4 0 0 .2.3.4.4 0zM518.6-677.1c-.1.8.3 1.2 1.2 1.2 0-.9-.4-1.3-1.2-1.2zM519.3-542.3c-.1.5-.6.7-.4 1.5h1.2c-.1-.7.4-1.9-.8-1.5zM515.9-692.5v1.2c1.1.5 1.1-1.8 0-1.2zM515.1-866.7c-.1-.1-.6.2-.4.4.1.1.6-.2.4-.4zM517.8-674.4c0 .2.3.4.4 0 0-.2-.3-.4-.4 0zM517.4-679c1 .1 1.7-.1 1.5-1.2-1-.1-1.6.2-1.5 1.2zM518.9-618c-.5-.1-.7-.5-1.5-.4-.6 1.1 1.7 1.1 1.5.4zM514.7-524.2c-.1-.1-.6.2-.4.4.1.1.6-.2.4-.4zM515.5-490.2h-.8v.8h.8v-.8zM528.2-593.3c.1.1.6-.2.4-.4-.1-.1-.6.2-.4.4zM526.3-591.8c0 .2.3.4.4 0 0-.2-.3-.4-.4 0zM525.5-496c.1.1.6-.2.4-.4-.1-.1-.6.2-.4.4zM527.8-784.8c.3-.1.8 0 .8-.4-.3.1-.8 0-.8.4zM527.4-658.9c.4 0 .6.6.8 0 0-.4-.7-.5-.8 0zM526.7-662.4c-.1-.1-.6.2-.4.4.1.1.6-.2.4-.4zM533.2-555.5c-.9 1.3 1.3-.9 0 0zM533.2-586c0 .6-1 .3-.8 1.2h1.2c0-.5.1-1.1-.4-1.2zM527.1-641.9v.8h1.2c0-.8-.5-1-1.2-.8zM528.6-557c-.4 0-.5-.3-.8-.4 0 .4-.3.5-.4.8.4 0 .5.3.8.4 0-.4.3-.5.4-.8zM523.2-536.5c-.3.1-.8 0-.8.4.3-.1.8-.1.8-.4zM529.4-821.5c.1.1.6-.2.4-.4-.1-.1-.6.2-.4.4zM528.2-509.1c-.3.1-.8 0-.8.4.3-.1.8 0 .8-.4zM527.4-647.7c-.1-.1-.6.2-.4.4.2.1.6-.2.4-.4zM529-485.2c-.1-.1-.6.2-.4.4.1.1.6-.2.4-.4zM527.4-661.6c-.3.1-.8 0-.8.4.4-.1.8-.1.8-.4zM527.4-723.8c-.1-.1-.6.2-.4.4.2.1.6-.2.4-.4zM502-646.2c.3-.1.8 0 .8-.4-.4.1-.8 0-.8.4zM493.1-530.7h-1.2v1.2h.8c0-.6.5-.6.4-1.2zM495.4-728.1c0-.2.1-.5.4-.4 0-.5-.1-.9-.8-.8.1.5 0 1.2.4 1.2zM494.2-595.2c-1 .5-1.4 1.4-1.2 3.1 1.6.3 2.2-2.3 1.2-3.1zM493.1-580.6c0 .2.3.4.4 0 0-.2-.3-.4-.4 0zM499.6-474c-.1-.1-.6.2-.4.4.2.1.6-.2.4-.4zM499.6-601.8c-.1-.1-.6.2-.4.4.2.1.6-.2.4-.4zM498.9-534.6c0 .2.3.4.4 0 0-.2-.3-.4-.4 0zM497.7-529.2c.1.1.6-.2.4-.4-.1-.1-.6.2-.4.4zM500.4-527.6c.1-.5.7-.9 0-1.2 0 .4-.7.9 0 1.2zM491.9-600.6c-.1-.1-.6.2-.4.4.1.1.6-.2.4-.4zM495.8-475.9c-.1-.1-.6.2-.4.4.1.1.6-.2.4-.4zM497.3-469h-.8c0 .5-.5.5-.4 1.2h1.2v-1.2zM496.6-518.4c-.1-.1-.6.2-.4.4.1.1.6-.2.4-.4zM497.3-442.7v-.8h-.8v.8h.8zM497.7-707.2h.8v-.8h-.8v.8zM495.4-521.9h-.8v.8h.8v-.8zM495-774.8h-1.2c-.1.8.3 1.2 1.2 1.2v-1.2zM495-723.4c-.1-.1-.6.2-.4.4.1.1.6-.2.4-.4zM493.9-826.1c.7 0 1-.3 1.2-.8-.7 0-1.4 0-1.2.8zM497.3-632.3c-.2 0-.5-.1-.4-.4h-.8c.6 1.5-1 .8-1.2 1.5.8.7 1.9-.4 2.4-1.1zM495.4-449.7c-.1-.1-.6.2-.4.4.1.1.6-.2.4-.4zM508.9-598.7c.1.1.6-.2.4-.4-.1-.1-.6.2-.4.4zM508.5-694.1c0-.2-.3-.4-.4 0 0 .2.4.5.4 0zM510.5-611.4c-1.3-1.2-1.2 1.4 0 0zM508.1-650.1c.1.1.6-.2.4-.4-.1 0-.6.2-.4.4zM520.9-586c.1.1.6-.2.4-.4-.1 0-.6.2-.4.4zM510.8-864.4c.1.1.6-.2.4-.4-.1 0-.6.2-.4.4zM521.3-833.1c-.1-.1-.6.2-.4.4.1.1.6-.2.4-.4zM505.4-583.3c0-.7-.3-1-.8-1.2-.5.7-.5 1.6.8 1.2zM503.9-486.7c0-.4-.7-.5-.8 0 .1.4.5.2.8 0zM505.1-545c-.1.5-.5.7-.4 1.5 1.3.3 1.5-1.5.4-1.5zM502-494.4c.3-.1.8 0 .8-.4-.4.1-.8 0-.8.4zM532.8-691.8c-.1-.1-.6.2-.4.4.2.1.6-.2.4-.4zM504.3-580.2c-.1-.1-.6.2-.4.4.1.1.6-.2.4-.4zM500.8-604.5c-2.7.7-2.6-1.3-4.6-1.2.4 1.2 1.4 1.7 1.2 3.5 1.5-.3 2.9.6 3.5 0-.1-.7-.1-1.5-.1-2.3zM505.8-479.4c-.1-.3-1-.5-1.2 0-.2.9 1.6.8 1.2 0zM505.1-784c-1.4-.2-2.3.3-2.3 1.5 1.3.1 2.6.1 2.3-1.5zM503.1-672.8c0 .2.3.4.4 0 0-.2-.3-.5-.4 0zM569.9-445.8c-.1-.1-.6.2-.4.4.1.1.6-.2.4-.4zM560.2-647.3c0-.4-.7-.5-.8 0 .2.4.5.2.8 0zM557.5-850.5c-.5.5-.5 1.4.4 1.5.5-.4.5-1.3-.4-1.5zM557.5-813c.9.1 1.5-.1 1.9-.4v-1.2c-1.1-.9-2.8.3-1.9 1.6zM559.5-845c-.1-.1-.6.2-.4.4.1 0 .6-.2.4-.4zM557.5-760.5c.1-.5.7-.9 0-1.2 0 .5-.6.9 0 1.2zM558.3-754.7c.1.1.6-.2.4-.4-.1-.1-.6.2-.4.4zM559.1-711.1c0 .2.3.4.4 0 0-.2-.3-.4-.4 0zM569.5-616.5h-.8v.8h.8v-.8zM568.4-591.4c-.5 2.3 1.6.2 0 0zM498.5-766.7c1.2 1.1-1.1-1.1 0 0zM562.2-491c-.1-.1-.6.2-.4.4.1.1.6-.2.4-.4zM561.4-544.6c-.6.6-.8 1.5-.8 2.7 1.7.4 3-2.7.8-2.7zM558.7-855.5c-.1-.1-.6.2-.4.4.1.1.6-.2.4-.4zM561.8-471.3c.1-.5.7-.9 0-1.2-.1.5-.7.9 0 1.2zM560.2-626.9v-1.5h-1.5c-.3 1.3.2 1.8 1.5 1.5zM563.3-606c-.5 0-.4-.7-.8-.8-.1.7-1.3.2-1.5.8v2.3c.9-.2.8.7 1.9.4.3-1.5-2.1-.3-1.5-1.9.8-1 1.7.6 1.9-.8zM560.2-530.4c-.1-.1-.6.2-.4.4.2.1.7-.2.4-.4zM564.1-487.5h.8v-.8h-.8v.8z"/><path class="st2" d="M563.3-603.7c.5 1.5-2.8 1-1.2 2.3.1-1 2.6-1.3 1.2-2.3zM557.2-700.6c-1.2 1.3 1.4 1.1 0 0zM560.6-545.8c-.1-.1-.6.2-.4.4.2.1.6-.2.4-.4zM557.2-450.8c.1.1.6-.2.4-.4-.2-.1-.6.2-.4.4zM557.9-522.2c0 .2.3.4.4 0 0-.3-.3-.5-.4 0zM557.2-560.5v.8h1.2c0-.7-.5-.9-1.2-.8zM557.9-517.2c-.3 2.3 1.8.2 0 0zM558.3-463.6v.8c.4 0 .5.3.8.4 0-.6 0-1.3-.8-1.2zM566.8-685.6c1-.3-.2-2.2-.8-.8-.1.3.6.9.8.8zM572.6-735h-.8v.8h.8v-.8zM571.4-491.7c-.6.9-.8.7-.4 1.9 1.3.1 1.6-1.9.4-1.9zM573.4-854.3c.1.1.6-.2.4-.4-.1-.1-.6.2-.4.4zM573.8-867.8c-.1.5-.7.9 0 1.2 0-.5.6-.9 0-1.2zM570.7-727.7c-.1-.1-.6.2-.4.4.1.1.6-.2.4-.4zM576.8-716.5c.6-.9-1.3-1.1-1.2-.4.2 0 .5.1.4.4h.8zM570.7-639.6c-.1-.1-.6.2-.4.4.1.1.6-.2.4-.4zM570.3-536.9c.1.1.6-.2.4-.4-.1-.1-.6.2-.4.4zM532.8-536.9h-.8c0 .4-.3.5-.4.8.7-.1 1.4 0 1.2-.8zM565.3-755.5c.1.5.4.2.8 0-.1-.4-.7-.5-.8 0zM564.5-521.5c-1.4 1.8 2.3.5 0 0zM573.4-713.4c0 .2.3.4.4 0 0-.2-.4-.4-.4 0zM567.6-569.4c-.9 1.3 1.3-.9 0 0zM568.4-618c-1 1.3 1.3-.9 0 0zM573-447.3c.7 0 1-.3 1.2-.8-.7 0-1.4-.1-1.2.8zM570.7-775.9c-.1-.1-.6.2-.4.4.1.1.6-.2.4-.4zM542.5-482.1h-.8v.8h.8v-.8zM537.5-439.2h.8v-.8h-.8v.8zM537.9-454.7c-.2.2-.4-.1-.4.4.2 1.8 2.2-2.2.4-.4zM539.4-823.4c-.3.1-.8 0-.8.4.3-.1.8 0 .8-.4zM544.8-702.2c-.1-.1-.6.2-.4.4.1.1.6-.2.4-.4zM534.4-486.3c.1.1.6-.2.4-.4-.1-.1-.6.2-.4.4zM544-590.2c0 .2-.1.5-.4.4v.8c1 .6 1.2-1.4.4-1.2zM542.5-593.7c-.1-.1-.6.2-.4.4.1.1.6-.2.4-.4zM542.5-440.8c-2.5-.4-.9 1.2 0 0zM542.9-504.5c-.1-.1-.6.2-.4.4.1.1.6-.2.4-.4zM535.5-644.3c0-.4-.7-.5-.8 0 .2.5.5.3.8 0zM531.3-538.5c-.1-.1-.6.2-.4.4.1.1.6-.2.4-.4zM531.3-505.3c-.9 1.3 1.3-.9 0 0zM540.6-460.8c.1.5.4.2.8 0-.1-.4-.7-.5-.8 0zM532.1-479h.8v-.8h-.8v.8zM537.1-819.2c-.7 0-1.2.1-1.5.4 0 .5.2.9.4 1.2.9.1 1.2-.6 1.1-1.6zM535.5-472.8c.1-.9-.1-1.5-.8-1.5-.5.5-.4 1.7.8 1.5zM537.5-721.1c-.1-.1-.6.2-.4.4.1.1.6-.2.4-.4zM537.5-617.6c-.3 2.3 1.7.2 0 0zM537.1-853.5c-.1-.1-.6.2-.4.4.1 0 .6-.2.4-.4zM554.5-810.3h-.8v.8h.8v-.8zM554.1-654.7c0-1.4-.4-1.1 0-2.3-1.7-.2-1.3 1.8-1.9 2.7.9.2.8-.7 1.9-.4zM554.1-586.7c-.1-.1-.6.2-.4.4.1.1.6-.2.4-.4zM551-546.2c-.1-.1-.6.2-.4.4.1.1.6-.2.4-.4zM550.2-493.7h.8v-.8h-.8v.8zM550.6-584.8c.2 0 .5.1.4.4h.8c.6-1-1.4-1.1-1.2-.4zM552.5-772.5c-.1-.1-.6.2-.4.4.2.1.6-.2.4-.4zM552.1-487.9c-.1-.1-.6.2-.4.4.2.1.6-.2.4-.4zM546-625.3c.5 0 .8.2 1.2.4.1-1.3-1.1-1.5-1.2-.4zM546.4-492.9h-.8v.8h.8v-.8zM556-588.3c.1.5-.1 1.1.4 1.2 0-.2.1-.5.4-.4-.1-.5-.1-.9-.8-.8zM546.4-443.5c0-.2-.3-.4-.4 0 0 .2.3.5.4 0zM546.7-477.5c-.1-.1-.6.2-.4.4.2.1.6-.2.4-.4zM549.4-651.6c0 .2.3.4.4 0 0-.2-.3-.4-.4 0zM547.9-647.3c0-.2-.3-.4-.4 0 0 .2.3.4.4 0zM548.3-811.8c-.1-.1-.6.2-.4.4.1.1.6-.2.4-.4zM547.5-575.5c.1.1.6-.2.4-.4-.1-.1-.6.2-.4.4zM690.7-461.2c.1.1.6-.2.4-.4-.1-.1-.6.2-.4.4zM478-520.7c-.9 1.3 1.3-.9 0 0zM478-874c-.3.1-.8 0-.8.4.4-.1.8 0 .8-.4zM478.4-506c-.1-.1-.6.2-.4.4.1.1.6-.2.4-.4zM484.2-808c-.1-.1-.6.2-.4.4.1.1.6-.2.4-.4zM476.8-522v.3s0-.1.1-.2l-.1-.1zM477.6-717.6h-.8v.8h.8v-.8zM484.2-875.2c-.1-.1-.6.2-.4.4.1.1.6-.2.4-.4zM477.3-600.6c-.1-.1-.6.2-.4.4.1.1.6-.2.4-.4zM477.3-533.4c-.1 0-.3 0-.4.1v.3c.1-.1.4-.2.4-.4zM476.8-736.2c.1-.1.1-.2 0-.1v.1zM489.6-733.1c.1.1.6-.2.4-.4-.1-.1-.6.2-.4.4zM490.4-794.1c-.1-.1-.6.2-.4.4.1.1.6-.2.4-.4zM489.2-729.6c0 .2.3.4.4 0 0-.2-.3-.4-.4 0zM491.2-453.1h-.8v.8h.8v-.8zM488.5-588.3h.8c0-.5.5-.5.4-1.2h-1.2v1.2zM490.8-584v-1.2c-.7-.1-.9.4-1.5.4-.5 1.2.8.7 1.5.8zM488.1-755.5c0-.2-.3-.4-.4 0 0 .2.3.5.4 0zM486.9-517.6c0 .4-.3.5-.4.8.6 0 1.3 0 1.2-.8h-.8zM483.8-581.3c-.8-1.2-2.5-.8-2.3 1.2 1.3.6 1.7-.3 2.3-1.2zM482.3-640c-1.2-.2-1.6.5-1.9 1.2.7.7 2.3.3 1.9-1.2zM483.4-607.6c0-.2-.3-.4-.4 0 0 .2.4.5.4 0zM485-842c-1 1.3 1.3-.9 0 0zM482.3-561.6h.8v-.8h-.8v.8zM486.1-658.9h-.8v1.5h.8v-1.5zM480.7-812.2h-.8v.8h.8v-.8zM480.3-546.2c-.4 2.3 1.7.2 0 0zM479.6-727.3c0 .2.3.4.4 0 0-.2-.3-.4-.4 0zM486.1-451.6h-.8v.8h.8v-.8zM499.3-714.1c-1 1.2 1.3-1 0 0zM669.1-557c0-.2-.3-.4-.4 0 0 .2.3.4.4 0zM669.5-571.7c-.1-.1-.6.2-.4.4.1.1.6-.2.4-.4zM669.5-524.9c-.1-.1-.6.2-.4.4.1 0 .6-.2.4-.4zM672.6-463.9c.1.1.6-.2.4-.4-.1-.1-.6.2-.4.4zM669.5-861.7c-.6 0-1.3-.1-1.2.8.7 0 1-.3 1.2-.8zM669.5-798.3c-.1.4-.6.4-1.2.4-.1 1 .5 1.3 1.5 1.2 0-.7.2-1.5-.3-1.6zM670.3-562.8c-1.4 1.8 2.2.5 0 0zM667.6-536.1v1.2c1.1.5 1.1-1.8 0-1.2zM672.2-460.1c-.3.1-.8 0-.8.4.3-.1.8 0 .8-.4zM668.7-623c0-.2-.3-.4-.4 0 0 .2.3.4.4 0zM668.7-799.5c0-.7-.3-1-.8-1.2 0 .7.3 1 .8 1.2zM669.9-480.2c-.3.1-.8 0-.8.4.3-.1.8 0 .8-.4zM671-440.4c0-.4-.7-.5-.8 0 .5 0 .7.6.8 0zM667.6-842.3c.1.1.6-.2.4-.4-.2-.1-.6.2-.4.4zM673-445.4c-1.1-.1-.5-1.8-1.9-1.5-.4 1.2 1.4 2.3 1.9 1.5zM667.6-492.1c-1 1.3 1.3-1 0 0zM668.7-529.2h-.8c0 .4-.3.5-.4.8.7-.1 1.4 0 1.2-.8zM665.6-805.3c0-.2-.3-.4-.4 0 0 .2.4.5.4 0zM664.9-682.5c-.1-.1-.6.2-.4.4.1.1.6-.2.4-.4zM666.4-465.1h-.8v.8h.8v-.8zM667.2-683.3h-.8v.8h.8v-.8zM667.6-525.3c0-.2-.3-.4-.4 0 0 .2.3.4.4 0zM666-676.3c-1.4.6-2.2-.4-2.7.8.3.2 2.7.4 2.7-.8zM667.2-545.8c0-.4-.7-.5-.8 0 .4 0 .6.6.8 0zM664.1-492.5c-.1-.1-.6.2-.4.4.1.1.6-.2.4-.4zM664.5-577.5c.1.1.6-.2.4-.4-.2-.1-.6.2-.4.4zM663.7-512.2c-.9 1.3 1.3-.9 0 0zM663.7-657.4c0-.2-.3-.4-.4 0 0 .2.3.4.4 0zM673.7-445c-.1-.1-.6.2-.4.4.2.1.6-.2.4-.4zM677.2-595.6c.3-.1.8 0 .8-.4-.3.1-.8 0-.8.4zM676-685.2c.1.1.6-.2.4-.4-.1-.1-.6.2-.4.4zM676.4-573.2c-.3 2.3 1.8.2 0 0zM673-686c-1 1.3 1.3-.9 0 0zM671-470.9c.9-.2.8.7 1.9.4-.4-.9-.1-2.5-1.5-2.3.3 1.1-.5 1-.4 1.9zM673-632.3c.1 1.6 1.2 1 1.9.8.3-1.4-1.4-1.4-1.9-.8zM673.3-548.1c0-.4-.7-.5-.8 0 .2.4.5.2.8 0zM677.6-689.1c-.1-.1-.6.2-.4.4.1.1.6-.2.4-.4zM674.9-743.1c-.1-.1-.6.2-.4.4.1.1.6-.2.4-.4zM683-664v.8h.8v-.8h-.8zM674.5-623.8c.1-1-.1-1.7-1.2-1.5-.1 1 .2 1.6 1.2 1.5zM686.5-517.6h-.8v.8h.8v-.8zM687.2-585.2c-.1.5-.7.9 0 1.2.1-.5.7-.9 0-1.2zM686.1-642.7c.9.1 1.4-.1 1.5-.8-.5-.6-1.7-.4-1.5.8zM685.7-574.8c-.1-.1-.6.2-.4.4.1.1.6-.2.4-.4zM685.3-523.8c-.1-.1-.6.2-.4.4.1.1.6-.2.4-.4zM689.9-560.9c-1.3-1.1-1.1 1.5 0 0zM687.2-535c-.1-.1-.6.2-.4.4.2.1.6-.2.4-.4zM688.8-709.9c-.9 1.3 1.3-.9 0 0zM690.3-454.3c0-.4-.7-.5-.8 0 .5 0 .7.6.8 0zM686.5-473.6c-.1-.1-.6.2-.4.4.1.1.6-.2.4-.4zM679.1-478.2c-.3.1-.8 0-.8.4.4-.1.8-.1.8-.4zM678-702.2c0 .2.3.4.4 0 0-.2-.3-.4-.4 0zM687.2-512.6c-.1-.1-.6.2-.4.4.2.1.6-.2.4-.4zM676-487.5c.4.3 1 .5 1.9.4-.2-1 0-2.3-1.2-2.3 0 .7-1 .7-.7 1.9zM682.2-496.4c-.9 1.3 1.3-.9 0 0zM674.9-508.7c0-.4-.7-.5-.8 0 .1.4.4.2.8 0zM682.2-523.4c.1-1-.1-1.7-1.2-1.5.2.6-.5 2 .4 1.9.1-.3.4-.5.8-.4zM686.1-604.1c-.3-.6-1-.8-1.9-.8-.5.5-.5 1.8 0 2.3 1.1 0 2.1-.1 1.9-1.5zM684.2-693.3c.3-.1.8 0 .8-.4-.4.1-.8 0-.8.4zM687.2-720.3c0 .2.3.4.4 0 0-.2-.3-.5-.4 0zM686.9-446.2c.1.1.6-.2.4-.4-.2-.1-.6.2-.4.4zM681.1-469.3c-.1.5-.5.7-.4 1.5 1.3.3 1.5-1.5.4-1.5zM680.7-755.9c-.1.5-.5.7-.4 1.5 1.1.7 1.1-1.6.4-1.5zM681.8-519.2h-.8v.8h.8v-.8zM707.7-485.2c.2-1.7-1.2-1.9-2.7-1.9v1.5c.5.6 1.7.4 2.7.4zM707.3-668.6c-.4 2.3 1.7.2 0 0zM701.1-502.6h-.8v.8h.8v-.8zM699.6-467.8c-.9 1.3 1.3-.9 0 0zM705.8-785.2c-.1-.1-.6.2-.4.4.1.1.6-.2.4-.4zM700.4-775.9c-.1-.1-.6.2-.4.4.1.1.6-.2.4-.4zM703.5-692.5h.8v-.8h-.8v.8zM703.5-503.7h.8v-.8h-.8v.8zM703.8-534.2c-.3.1-.8 0-.8.4.4-.1.8 0 .8-.4zM705.4-683.6v-.8c-.7-1.3-1.9 1.1 0 .8zM705.8-640.4c-1-.1-1.9-.1-2.3.4-.3 1.4 2.9.9 2.3-.4zM702.3-799.1c.1.1.6-.2.4-.4-.1-.1-.6.2-.4.4zM701.9-610.3c1.3 1.2 1.2-1.4 0 0zM702.3-629.2c.1.5-.1 1.1.4 1.2 0-.2.1-.5.4-.4-.1-.5-.1-.9-.8-.8zM703.1-825.7c.4 0 .6.6.8 0-.1-.4-.7-.5-.8 0zM699.6-672.4h-.8v.8h.8v-.8zM692.6-836.6c.1.1.6-.2.4-.4-.1 0-.6.2-.4.4zM693-671.7c-.1-.1-.6.2-.4.4.2.1.6-.2.4-.4zM695.7-841.6c-.1-.1-.6.2-.4.4.2.1.6-.2.4-.4zM691.5-825v.8h1.2c0-.7-.4-.9-1.2-.8zM695.3-453.9c-.9 1.3 1.3-.9 0 0zM693.4-727.7c0-.2-.3-.4-.4 0 0 .3.3.5.4 0zM693.8-436.9v-1.5h-1.2c-.1 1 .2 1.6 1.2 1.5zM697.7-791.8v-.8h-.8v.8h.8zM657.1-656.6c0-.2-.3-.4-.4 0 0 .2.4.4.4 0zM657.9-514.1c0-.7-.3-1-.8-1.2-.5.6-.5 1.5.8 1.2zM660.6-445.8c0-2.1-4.2-2-3.9.4 0 .6 1 .3.8 1.2 1.6 0 3.1-.1 3.1-1.6zM673.7-440c-1.3-1.2-1.1 1.4 0 0zM667.2-536.5c-1.3-1.2-1.2 1.4 0 0zM661-872.5c-.9 1.3 1.3-.9 0 0zM658.7-565.9c-.6.1-1.4-.1-1.5.4.4.5 1.4.5 1.5-.4zM661.4-830c.3.5.4.1 0-.4-.4-.4-.3-.1 0 .4zM656.4-803h.8v-.8h-.8v.8zM661.8-672.1c0-.4-.7-.5-.8 0 .1.5.4.3.8 0zM656.7-845.8c0 .4-.3.5-.4.8.6 0 1.3.1 1.2-.8h-.8zM662.5-449.3c-1.5-1.3-.9 1.3 0 0zM711.2-520.3c.3-.1.8 0 .8-.4-.4.1-.8 0-.8.4zM708.5-655.1c-.1-.1-.6.2-.4.4.1.1.6-.2.4-.4zM708.9-603.3c-.3.4-.5 1-.4 1.9h1.5c.3-1.3-.3-1.7-1.1-1.9zM711.2-684.8c.1.1.6-.2.4-.4-.1-.1-.6.2-.4.4zM710.8-672.8c.1-.9 1.3-.7 1.2-1.9-.9-.1-1.5.1-1.9.4-.2.8 0 1.4.7 1.5zM710.8-836.6c.1.1.6-.2.4-.4-.1 0-.6.2-.4.4zM701.5-526.5c0-.2-.3-.4-.4 0 0 .2.4.4.4 0zM712.3-514.1c.1.1.6-.2.4-.4-.1-.1-.6.2-.4.4zM709.2-470.1c-.4 0-.5-.3-.8-.4-1 .6.6 1.3.8.4zM701.1-614.5c.3-.1.8 0 .8-.4-.3.1-.8 0-.8.4zM710.8-492.1c0 .2.3.4.4 0 0-.2-.3-.5-.4 0zM710.4-733.8c-.1-.1-.6.2-.4.4.1.1.6-.2.4-.4zM710.8-482.9v1.5h1.2c.1-.9-.2-1.6-1.2-1.5zM585-448.5c.1-1-.1-1.7-1.2-1.5-.1.5-.5.7-.4 1.5h1.6zM606.6-779c0 .2.3.4.4 0 0-.2-.4-.5-.4 0zM607-794.8c-.1-.1-.6.2-.4.4.1 0 .6-.3.4-.4zM606.2-582.1c.1.5-.1 1.1.4 1.2 0-.2.1-.5.4-.4-.1-.5-.2-.9-.8-.8zM606.6-556.6h-.8c0 .5-.5.5-.4 1.2h1.2v-1.2zM606.6-659.7c-.7.2-1.7.1-1.5 1.2.9.1 1.6-.2 1.5-1.2zM603.1-568.2c-.1-.1-.6.2-.4.4.1.1.6-.2.4-.4zM604.3-830.8c-.1-.1-.6.2-.4.4.1.1.6-.2.4-.4zM603.1-447.7h-.8v.8h.8v-.8zM601.2-453.1c1.1 1-1.1-1.2 0 0zM602.7-494.1c-.1-.1-.6.2-.4.4.1.1.6-.2.4-.4zM604.3-732.7h.2c0-.1.1-.1 0 0 0 .1.1.2.2.4 0 0 1.1.4 1.2.4.2.1.9.8 1.2 0-1.1.3-.6-1.1-1.2-1.5-.3-.2-1.2.2-1.5 0-.1 0 .1-.7 0-.8-.2-.2-1.1 0-1.2-.4-.4.7.4 2 1.1 1.9zM602.3-623.8v1.2h.8c0-.4.3-.5.4-.8-.5 0-.9-.2-1.2-.4zM599.2-520.7c-.9 1.3 1.3-.9 0 0zM599.6-661.6c-.3.1-.8 0-.8.4.3-.1.8-.1.8-.4zM600-600.6c-.1-.1-.6.2-.4.4.1.1.6-.2.4-.4zM597.7-592.9c-.4 0-.5-.3-.8-.4-1 .6.6 1.3.8.4zM596.9-481.7c0 .2.3.4.4 0 0-.2-.3-.4-.4 0zM606.2-562v1.2c1.1.5 1.1-1.8 0-1.2zM598.5-837.3c.1-.5 1.6-1.5.4-1.9-.1.6-.8.3-1.2 0-.1.9-.1 1.8.8 1.9zM614.3-664.7c.3-.1.8 0 .8-.4-.3.1-.8 0-.8.4zM613.1-520.7c.2.6.5.1 0-.4-.6-.1-.9.4 0 .4zM615.4-652.8c-.1-.1-.6.2-.4.4.2.1.6-.2.4-.4zM616.2-494.1h-.8v.8h.8v-.8zM615.8-618.8c-.1-.1-.6.2-.4.4.2.1.6-.2.4-.4zM612.4-698.7v1.2c1.1.5 1.1-1.8 0-1.2zM613.1-861.7c-1.4 1.9 2.3.6 0 0zM612.4-839.3c.1.1.6-.2.4-.4-.2 0-.6.2-.4.4zM612-568.6c0 .4.7.5.8 0-.5.1-.7-.5-.8 0zM607.7-545.4v1.2c1.2.5 1.2-1.8 0-1.2zM602.3-718c.3-.1.8 0 .8-.4-.3.1-.8 0-.8.4zM612-526.5c-.3.1-.8 0-.8.4.3-.1.8 0 .8-.4zM616.6-863.6c0-.2-.3-.4-.4 0 0 .2.3.5.4 0zM616.2-526.9c-.9 1.3 1.3-.9 0 0zM609.3-617.2c0 .4-.3.5-.4.8.5 0 .5.5 1.2.4 0-.7-.4-1.1-.8-1.2zM610-614.1v-.8h-.8v.8h.8zM610.4-840.8c-.1-.1-.6.2-.4.4.2.1.6-.2.4-.4zM579.9-686c0-.4-.7-.5-.8 0 .5 0 .7.6.8 0zM585-754.7c-.7 0-1.2.1-1.5.4-.1 1 .5 1.3 1.5 1.2v-1.6zM582.6-611.1c-.9 1.3 1.3-.9 0 0zM584.2-461.2c.1.5.4.2.8 0 0-.4-.7-.5-.8 0zM588.4-452.4c-.1-.1-.6.2-.4.4.1.1.6-.2.4-.4zM588.8-873.6c-.1-.1-.6.2-.4.4.1.1.6-.2.4-.4zM581.9-539.6c.3-.1.8 0 .8-.4-.4.1-.8 0-.8.4zM583-643.9c0-.4-.7-.5-.8 0 .1.5.5.3.8 0zM585-519.5h-.8v.8h.8v-.8zM588.4-654.7c0-.4-.7-.5-.8 0 .5 0 .7.6.8 0zM583.4-521.1c-.1-.1-.6.2-.4.4.1.1.6-.2.4-.4zM588-490.6c.2-1.3-2.3-2-2.3-.8 1.2-.1.9 1.2 2.3.8zM586.5-519.9c0-.4-.7-.5-.8 0 .5-.1.6.5.8 0zM585.3-669.4c.1.1.6-.2.4-.4-.1-.1-.6.2-.4.4zM588.4-437.3c-.1-1.5-.9-2.2-1.9-2.7 0 1.5.2 2.9 1.9 2.7zM593.1-480.5c.6.2 1 .6 1.5.8.7-1.4-1.4-1.7-1.5-.8zM591.9-535.8c.5.1.7.5 1.5.4.7-1-1.6-1-1.5-.4zM590.4-640.4c-.3.1-.8 0-.8.4.3-.1.7 0 .8-.4zM589.6-688.3c.3-.1.8 0 .8-.4-.3.1-.8 0-.8.4zM590.4-719.2c-.1-.1-.6.2-.4.4.1.1.6-.2.4-.4zM589.6-521.1h.8c0-.4.3-.5.4-.8-.5 0-.5-.5-1.2-.4v1.2zM591.1-703c-.1-.1-.6.2-.4.4.2.1.6-.2.4-.4zM579.2-635.4v.8h1.2c0-.7-.5-.9-1.2-.8zM580.3-550.4c-.1-.1-.6.2-.4.4.1.1.6-.2.4-.4zM580.7-519.9c.3-.1.8 0 .8-.4-.3.1-.8 0-.8.4zM581.5-774c-1.3-1.2-1.2 1.4 0 0zM581.5-514.1c.1-.9-.1-1.5-.8-1.5-.2.9-.7 1.4.8 1.5zM578-560.9c0 .2.3.4.4 0 0-.2-.3-.4-.4 0zM578.8-577.1h-.8c0 .4-.3.5-.4.8.6 0 1.4 0 1.2-.8zM578-610.3c-.1-.1-.6.2-.4.4.1.1.6-.2.4-.4zM579.5-704.5h-.8c0 .5-.5.5-.4 1.2h.8c.1-.5.6-.6.4-1.2zM596.9-656.6h-.8v.8h.8v-.8zM643.2-830.4c-.1-.1-.6.2-.4.4.2.1.6-.2.4-.4zM642.9-740.4c0-.2-.3-.4-.4 0 0 .2.3.4.4 0zM643.2-533.8c.1.1.6-.2.4-.4-.1-.1-.6.2-.4.4zM641.7-660.9c.1.1.6-.2.4-.4-.1-.1-.6.2-.4.4zM642.1-735.8c-1 1.3 1.3-.9 0 0zM642.1-796c.3-.1.8 0 .8-.4-.3.1-.8 0-.8.4zM643.2-826.9c-.4 2.2 1.7.2 0 0zM639.8-661.3c1.1 1.1-1.1-1.1 0 0zM645.6-496c-1 1.3 1.3-.9 0 0zM641.3-518c-.3.1-.8 0-.8.4.3-.1.8 0 .8-.4zM649.4-621.1c.1-.4-.3-1-.4-.4 0 .4.3 1 .4.4zM640.5-553.1c-.3.1-.8 0-.8.4.4-.1.8-.1.8-.4zM640.9-699.9c-.1-.1-.6.2-.4.4.1.1.6-.2.4-.4zM648.3-440.8c.1-1-.1-1.7-1.2-1.5-.1 1 .1 1.6 1.2 1.5zM649-451.2c-.1-.1-.6.2-.4.4.1.1.6-.2.4-.4zM647.1-453.1h-.8v.8h.8v-.8zM648.6-836.6c0 .5-.5.5-.4 1.2h.8c.5-.6.4-.9-.4-1.2zM648.6-459.7c0-.2-.3-.4-.4 0 .1.2.4.4.4 0zM644.4-532.7v.8h1.2c0-.7-.4-.9-1.2-.8zM656.4-486.7h-.8v.8h.8v-.8zM655.2-540.8c-.9 1.3 1.3-.9 0 0zM656-444.6c.7-.7-.2-.7 0-1.9h-1.5c-.4 1.4.4 1.8 1.5 1.9zM654.4-652c.1.1.6-.2.4-.4-.1-.1-.6.2-.4.4zM650.6-453.5c.3-.1.8 0 .8-.4-.4.1-.8 0-.8.4zM650.6-571.3c.1.5.4.2.8 0-.1-.4-.7-.5-.8 0zM654.4-753.1c0-.2-.3-.4-.4 0 0 .2.4.4.4 0zM652.5-625.7h.8v-.8h-.8v.8zM653.3-444.6c-.1.5-.5.7-.4 1.6 1.8.4 1.8-1.6.4-1.6zM652.9-564.3h.8v-.8h-.8v.8zM650.6-784.8c-.7.7-.4 2.4 1.2 1.9-.1-1-.1-2-1.2-1.9zM654.8-726.5c-.3.1-.8 0-.8.4.3-.1.8 0 .8-.4zM647.1-550.8h.8v-.8h-.8v.8zM647.5-513c.3-.1.8 0 .8-.4-.3.1-.8 0-.8.4zM648.3-468.2h-.8v.8h.8v-.8zM646.7-777.5c0 .2.3.4.4 0 0-.2-.3-.4-.4 0zM646.7-575.1c0-.2-.3-.4-.4 0 0 .2.3.4.4 0zM647.1-533.4c0-.2.1-.5.4-.4v-.8c-.2 0-.5-.1-.4-.4h-.8c0 .2-.1.5-.4.4v.8c.2 0 .5.1.4.4h.8zM645.9-646.2c0 .4-.3.5-.4.8.6 0 1.3 0 1.2-.8h-.8zM615.1-517.6c.2-1.2-.7-1.2 0-1.9h-1.9c.2 1 .3 2.1 1.9 1.9zM650.6-795.2c.1.7.3 1.3.8 1.5-.1-.7.3-1.9-.8-1.5zM646.7-463.9c.1-.5.6-.7.4-1.5h-1.2c-.1.8.1 1.4.8 1.5zM625.5-492.5h-.8v.8h.8v-.8zM624.7-546.2c0-.2-.3-.4-.4 0 0 .2.3.5.4 0zM624.7-561.2c0-.2-.3-.4-.4 0 0 .2.3.4.4 0zM625.9-603.7c-.1-.1-.6.2-.4.4.1.1.6-.2.4-.4zM625.9-447.3c-.1-.1-.6.2-.4.4.1.1.6-.2.4-.4zM625.9-515.3h-.8v.8h.8v-.8zM631.7-633.4c-1.9-.1-.5 1.4-1.2 1.9 1.1 0 1.1-1 1.2-1.9zM630.1-472.1c-.1-.1-.6.2-.4.4.1.1.6-.1.4-.4zM629.3-509.1c-.9 1.3 1.3-1 0 0zM630.5-472.8c.1-.5.7-.9 0-1.2-.1.5-.7.9 0 1.2zM631.3-600.6c-.3.1-.8 0-.8.4.3-.1.8-.1.8-.4zM626.6-774.8c0 .2.3.4.4 0 0-.2-.3-.4-.4 0zM622-488.3c0 .4.7.5.8 0-.5.1-.6-.5-.8 0zM622-645c.1.5.4.2.8 0 0-.4-.7-.5-.8 0zM620.8-673.6c0-.4-.7-.5-.8 0 .5 0 .7.6.8 0zM629.3-479c-.1-.1-.6.2-.4.4.2.1.6-.2.4-.4zM619.3-540.4c0-.2-.3-.4-.4 0 0 .2.3.4.4 0zM618.5-697.9c0-.4-.7-.5-.8 0 .1.4.5.2.8 0zM617.4-471.3c.5.1.7.6 1.5.4.6-1.1-1.6-1.1-1.5-.4zM623.6-781.7c0 .2.3.4.4 0-.1-.2-.4-.5-.4 0zM622.4-679.8c-1.6-.2-2.7.1-2.3 1.9 1.6.3 2.7-.1 2.3-1.9zM620.5-571.7c-.4 2.3 1.6.2 0 0zM621.2-598.7c.1.1.6-.2.4-.4-.1-.1-.6.2-.4.4zM636.3-571.7c0-.2-.3-.4-.4 0 0 .2.3.5.4 0zM635.9-444.6c.1.1.6-.2.4-.4-.1-.1-.6.2-.4.4zM636.3-522.2c-.1-.1-.6.2-.4.4.1 0 .6-.2.4-.4zM639.4-791.4c0-.2-.3-.4-.4 0 0 .2.3.5.4 0zM636.3-845.8c-.1.5-.7.9 0 1.2 0-.5.7-.9 0-1.2zM641.3-502.6c-.1-.1-.6.2-.4.4.1.1.6-.1.4-.4zM633.2-462.4c.1.1.6-.2.4-.4-.1-.1-.6.2-.4.4zM638.6-503.7c.1.1.6-.2.4-.4-.1-.1-.6.2-.4.4zM629.3-531.5h-.8c0 .5-.5.5-.4 1.2h1.2v-1.2zM639.4-449.7c-.1-.1-.6.2-.4.4.1.1.6-.2.4-.4zM628.6-715.7c.1.1.6-.2.4-.4-.1-.1-.6.2-.4.4zM628.6-825.7c-1 1.3 1.3-1 0 0zM629-694.5c-.1-.1-.6.2-.4.4.1.1.6-.2.4-.4zM628.6-748.1c0-.2-.3-.4-.4 0 0 .2.3.4.4 0zM628.2-547c.1.1.6-.2.4-.4-.1-.1-.6.2-.4.4zM629-596.8c-1 1.3 1.3-.9 0 0zM628.2-750.8c0 .2.3.4.4 0 0-.2-.3-.5-.4 0zM632.8-438.5c.6-.6.4-2-.8-1.9 0 1 0 1.9.8 1.9zM633.6-504.1c-.1-.1-.6.2-.4.4.1.1.6-.2.4-.4zM632.4-510.3c-.1-.1-.6.2-.4.4.2.1.6-.2.4-.4zM630.1-742c-.3.1-.8 0-.8.4.3-.1.8 0 .8-.4zM630.1-820.3c-.3.1-.8 0-.8.4.3-.1.8-.1.8-.4z"/></g><g><path class="st1" d="M485-436.4H0v-439.1h485z"/><path class="st2" d="M484.9-648.1c-.1-.1-.6.2-.4.4.1.1.6-.2.4-.4zM484.5-843.9c.1.1.6-.2.4-.4-.1-.1-.6.2-.4.4zM481.8-604.1c.1.1.6-.2.4-.4-.1-.1-.6.2-.4.4zM482.2-830.4c-.1-.1-.6.2-.4.4.1.1.6-.2.4-.4zM485-525.7v-.4c-.1.1-.3.2-.2.4h.2zM482.9-714.1c-.1-.1-.6.2-.4.4.2 0 .6-.3.4-.4zM477.5-454.3c-.6-.1-.7-.6-1.2-.8v1.2h.8c.3 0 .5-.1.4-.4zM477.2-596.4c0-.2-.3-.4-.4 0 0 .2.3.5.4 0zM484.1-540.4c-.3.1-.8 0-.8.4.3-.1.8 0 .8-.4zM479.1-611.1c.4 0 .6.6.8 0-.1-.3-.7-.4-.8 0zM478.7-465.5c.1-.9-.1-1.5-.8-1.5-.6.5-.4 1.7.8 1.5zM483.3-455.1c-.1-.1-.6.2-.4.4.2.1.6-.2.4-.4z"/></g></pattern><g id="Layer_1"><pattern id="SVGID_1_" xlink:href="#New_Pattern_2" patternTransform="translate(-4140.744 1309.274)"/><path class="st3" d="M0 0h485v439H0z"/></g></svg>